Coordinates
version=1
nRows=22
nColumns=24
inDegrees=yes

Units are S.I. units (second, meters, Newtons, ...)
Angles are in degrees.

endheader
time	pelvis_tilt	pelvis_list	pelvis_rotation	pelvis_tx	pelvis_ty	pelvis_tz	hip_flexion_r	hip_adduction_r	hip_rotation_r	knee_angle_r	ankle_angle_r	subtalar_angle_r	mtp_angle_r	hip_flexion_l	hip_adduction_l	hip_rotation_l	knee_angle_l	ankle_angle_l	subtalar_angle_l	mtp_angle_l	lumbar_extension	lumbar_bending	lumbar_rotation
      0.96716667	     -1.66942777	     -2.10007474	      1.82367060	     -0.15345532	      1.01783550	      0.33151860	    -10.62517283	      6.74145318	     -2.01942089	     -9.34700945	     12.60795750	     -4.68025171	      0.37774435	     19.43714718	     -0.39839229	     -2.01274066	      6.13352734	      2.94170635	     -4.62384959	     -3.87637498	     -4.13362264	     -0.36784422	      3.45735216
      0.97133333	     -1.68654950	     -2.00042623	      1.75527025	     -0.14775946	      1.01708276	      0.33117490	    -10.64147652	      6.58037596	     -2.11823246	    -10.00284743	     12.91619809	     -4.35009784	      0.41173433	     19.46183125	     -0.23022133	     -1.76148648	      5.90922129	      2.99528127	     -4.53984050	     -3.65616673	     -4.09407869	     -0.49200991	      3.46593285
      0.97550000	     -1.64283556	     -1.89938803	      1.70841878	     -0.14207024	      1.01644793	      0.33085019	    -10.74301987	      6.44556407	     -2.06830745	    -10.60028684	     13.00748779	     -4.44501435	      0.42174719	     19.43523418	     -0.06145824	     -1.50048198	      5.59467335	      3.00480432	     -4.49913908	     -3.60443569	     -4.13330042	     -0.63192375	      3.46533001
      0.97966667	     -1.61802535	     -1.76684307	      1.64712041	     -0.13631753	      1.01582391	      0.33052621	    -10.77542903	      6.25881062	     -2.11457438	    -11.31887814	     13.25501770	     -4.22248332	      0.47609021	     19.41836687	      0.13567689	     -1.23704640	      5.22793202	      2.98304752	     -4.51145671	     -3.36271674	     -4.12407952	     -0.83091080	      3.45199093
      0.98383333	     -1.58167815	     -1.64038378	      1.60905842	     -0.13060534	      1.01523658	      0.33011475	    -10.78219152	      6.07478702	     -2.22657673	    -12.10057813	     13.42832380	     -4.02280143	      0.59052539	     19.42604292	      0.33846962	     -1.01299944	      4.74563853	      2.87852078	     -4.58707899	     -2.88788864	     -4.16328671	     -0.97114813	      3.43458714
      0.98800000	     -1.50560029	     -1.49614773	      1.57524809	     -0.12485111	      1.01474893	      0.32976493	    -10.84903169	      5.89801819	     -2.18525450	    -12.83934442	     13.43179912	     -4.17866387	      0.60855679	     19.39107366	      0.55197115	     -0.80539198	      4.20692581	      2.81110193	     -4.60715274	     -2.82238830	     -4.23246780	     -1.15955050	      3.43277545
      0.99216667	     -1.42707980	     -1.33278519	      1.53424016	     -0.11907123	      1.01429560	      0.32936760	    -10.85195619	      5.67204970	     -2.30881946	    -13.72902244	     13.59760169	     -3.92960924	      0.78711573	     19.34126670	      0.78655922	     -0.56494636	      3.65347782	      2.59402564	     -4.82341561	     -2.30356067	     -4.29955700	     -1.37521557	      3.39835753
      0.99633333	     -1.33501825	     -1.17283599	      1.50761834	     -0.11328384	      1.01390256	      0.32897606	    -10.88026785	      5.47631843	     -2.28703801	    -14.57619683	     13.52570707	     -4.10127742	      0.81233686	     19.30636645	      1.01671222	     -0.39512896	      3.00075830	      2.48203199	     -4.87656313	     -2.23417484	     -4.38440125	     -1.57823390	      3.39492214
      1.00050000	     -1.24673779	     -0.99541168	      1.47612019	     -0.10747621	      1.01352338	      0.32854831	    -10.83437131	      5.23159541	     -2.43928697	    -15.58021733	     13.61357984	     -3.86315886	      1.07673433	     19.25097215	      1.26668324	     -0.14057224	      2.37551588	      2.15637103	     -5.22406625	     -1.67163154	     -4.45223514	     -1.81717664	      3.33879083
      1.00466667	     -1.09904036	     -0.81526820	      1.45930541	     -0.10164332	      1.01327839	      0.32812683	    -10.87097088	      5.00897838	     -2.47905303	    -16.51544373	     13.38037777	     -4.04634631	      3.12190064	     19.13991320	      1.51595241	      0.07135899	      1.71438792	      1.78932209	     -5.52139384	      2.14121486	     -4.60473382	     -2.05753519	      3.32150582
      1.00883333	     -1.01658225	     -0.62966239	      1.43020289	     -0.09581610	      1.01297669	      0.32769189	    -10.77300386	      4.76444159	     -2.56394594	    -17.59160819	     13.26298281	     -4.07082696	      3.15612281	     19.12619628	      1.76781700	      0.17171502	      0.96748545	      1.58153538	     -5.63292553	      2.16201713	     -4.65215254	     -2.31706513	      3.29181034
      1.01300000	     -0.88847866	     -0.44446332	      1.41433228	     -0.09000550	      1.01277239	      0.32717992	    -10.68184356	      4.50138077	     -2.76312730	    -18.74480823	     13.15967910	     -3.90956112	      3.27414199	     19.05706724	      2.02547010	      0.33931638	      0.22564298	      1.25573302	     -5.94674281	      2.22214455	     -4.77360142	     -2.53660188	      3.24098147
      1.01716667	     -0.76173593	     -0.25075186	      1.40121677	     -0.08417552	      1.01260841	      0.32666442	    -10.56594163	      4.22988500	     -2.94618162	    -19.93199043	     12.93916471	     -3.84978339	      3.46424161	     18.98070211	      2.29050881	      0.52752031	     -0.51310365	      0.91016102	     -6.30587440	      2.30553706	     -4.88823812	     -2.78025587	      3.18910562
      1.02133333	     -0.61108412	     -0.04629617	      1.38420226	     -0.07831861	      1.01253549	      0.32615988	    -10.45533314	      3.94546954	     -3.12319681	    -21.14305808	     12.57080310	     -3.90899711	      3.55519020	     18.88248737	      2.55676088	      0.62682678	     -1.27712922	      0.65093233	     -6.49887376	      2.33901318	     -5.01127063	     -3.06189368	      3.16072704
      1.02550000	     -0.49407818	      0.15492340	      1.38146750	     -0.07251932	      1.01242934	      0.32554417	    -10.24656598	      3.63327126	     -3.41502937	    -22.47460373	     12.30563697	     -3.68500264	      3.88123441	     18.81855629	      2.83513900	      0.84842048	     -2.03273717	      0.24130944	     -6.98581123	      2.43286951	     -5.13410150	     -3.27982423	      3.07239917
      1.02966667	     -0.33542503	      0.37766196	      1.36620661	     -0.06665230	      1.01245773	      0.32497831	    -10.07891754	      3.30361462	     -3.65801164	    -23.78731966	     11.76856474	     -3.72529398	      4.03461427	     18.70170738	      3.11810507	      0.94064923	     -2.79498685	     -0.00912271	     -7.18119950	      2.46878961	     -5.26913869	     -3.56847946	      3.04081328
      1.03383333	     -0.21594870	      0.57397646	      1.37425569	     -0.06088033	      1.01243622	      0.32429106	     -9.80598218	      2.96933879	     -4.01408768	    -25.21687593	     11.36686265	     -3.48155067	      4.52884782	     18.63954688	      3.39168002	      1.14369594	     -3.57038607	     -0.38527922	     -7.65424519	      2.55267294	     -5.39162505	     -3.79035991	      2.92799307
      1.03800000	     -0.01014821	      0.79498569	      1.34990592	     -0.05504591	      1.01263548	      0.32368226	     -9.63427749	      2.61492205	     -4.28181378	    -26.57769817	     10.50060175	     -3.63743435	      9.13238663	     18.43553523	      3.67314167	      1.32630079	     -4.26113960	     -0.76100035	     -8.14294323	      3.10951274	     -5.60207868	     -4.04690117	      2.87499114
      1.04216667	      0.11946648	      1.02407817	      1.35752513	     -0.04922273	      1.01273922	      0.32296628	     -9.32819709	      2.22009077	     -4.67072057	    -28.05417617	      9.81648035	     -3.50928272	      9.18002475	     18.36411239	      3.96589776	      1.36839036	     -5.07231513	     -0.84686976	     -8.18938507	      3.10466343	     -5.70832545	     -4.31374653	      2.83288431
      1.04633333	      0.24650570	      1.23790925	      1.36258470	     -0.04346421	      1.01286529	      0.32222578	     -8.97854698	      1.82122479	     -5.07909678	    -29.58815588	      9.12209202	     -3.31767923	      9.33702195	     18.29575450	      4.24242032	      1.41962638	     -5.87715091	     -0.99556890	     -8.34607882	      3.08012526	     -5.83648605	     -4.56433695	      2.72617387
      1.05050000	      0.42709525	      1.45935278	      1.34975503	     -0.03767252	      1.01313945	      0.32150206	     -8.67755219	      1.40388777	     -5.46704850	    -31.10337988	      8.20927267	     -3.27210782	      9.41537007	     18.13389122	      4.51781913	      1.45857074	     -6.62080940	     -1.06346922	     -8.47910409	      3.06397029	     -6.00369419	     -4.81178422	      2.68294052
      1.05466667	      0.54479108	      1.69565030	      1.36420216	     -0.03191195	      1.01333561	      0.32066117	     -8.27149905	      0.93820664	     -5.92526752	    -32.68451588	      7.35102425	     -3.06994183	     10.05892585	     18.03776449	      4.82794747	      1.57080717	     -7.36180713	     -1.18875153	     -8.76619838	      2.92523259	     -6.11360757	     -5.03426960	      2.42864218
